<svg width="245" height="29" viewBox="0 0 245 29" fill="none" xmlns="http://www.w3.org/2000/svg">
<path d="M226.836 19.7266C226.836 19.1927 226.934 18.6979 227.129 18.2422C227.337 17.7734 227.611 17.3633 227.949 17.0117C228.301 16.6602 228.711 16.3867 229.18 16.1914C229.648 15.9831 230.143 15.8789 230.664 15.8789H240.586V11.8555H228.027V8.00781H240.586C241.12 8.00781 241.621 8.11198 242.09 8.32031C242.559 8.51562 242.962 8.78906 243.301 9.14062C243.652 9.47917 243.926 9.88281 244.121 10.3516C244.329 10.8203 244.434 11.3216 244.434 11.8555V28.8086H240.586V25.293C240.547 25.7747 240.417 26.2305 240.195 26.6602C239.974 27.0898 239.688 27.4674 239.336 27.793C238.997 28.1055 238.607 28.3529 238.164 28.5352C237.721 28.7174 237.253 28.8086 236.758 28.8086H230.664C230.143 28.8086 229.648 28.7109 229.18 28.5156C228.711 28.3073 228.301 28.0339 227.949 27.6953C227.611 27.3438 227.337 26.9336 227.129 26.4648C226.934 25.9961 226.836 25.4948 226.836 24.9609V19.7266ZM230.664 24.9609H240.586V19.7266H230.664V24.9609Z" fill="#111111"/>
<path d="M198.809 28.8086L192.09 8.00781H195.977L200.898 23.6914L205.488 8.00781H209.414L214.004 23.6914L218.926 8.00781H222.812L216.094 28.8086H212.09L207.441 13.5352L202.812 28.8086H198.809Z" fill="#111111"/>
<path d="M188.086 28.8086H184.238V11.8555H173.516V28.8086H169.688V0H173.516V11.6797C173.542 11.1719 173.659 10.6966 173.867 10.2539C174.076 9.79818 174.349 9.40755 174.688 9.08203C175.039 8.74349 175.443 8.48307 175.898 8.30078C176.354 8.10547 176.842 8.00781 177.363 8.00781H184.238C184.772 8.00781 185.273 8.11198 185.742 8.32031C186.211 8.51562 186.615 8.78906 186.953 9.14062C187.305 9.47917 187.578 9.88281 187.773 10.3516C187.982 10.8203 188.086 11.3216 188.086 11.8555V28.8086Z" fill="#111111"/>
<path d="M163.281 28.8086H159.434V11.8555H148.711V28.8086H144.883V8.00781H148.711V11.6797C148.737 11.1719 148.854 10.6966 149.062 10.2539C149.271 9.79818 149.544 9.40755 149.883 9.08203C150.234 8.74349 150.638 8.48307 151.094 8.30078C151.549 8.10547 152.038 8.00781 152.559 8.00781H159.434C159.967 8.00781 160.469 8.11198 160.938 8.32031C161.406 8.51562 161.81 8.78906 162.148 9.14062C162.5 9.47917 162.773 9.88281 162.969 10.3516C163.177 10.8203 163.281 11.3216 163.281 11.8555V28.8086Z" fill="#111111"/>
<path d="M120.078 8.00781H123.906V24.9609H134.629V8.00781H138.477V28.8086H134.629V25.293C134.59 25.7747 134.46 26.2305 134.238 26.6602C134.017 27.0898 133.73 27.4674 133.379 27.793C133.04 28.1055 132.65 28.3529 132.207 28.5352C131.764 28.7174 131.296 28.8086 130.801 28.8086H123.906C123.385 28.8086 122.891 28.7109 122.422 28.5156C121.953 28.3073 121.543 28.0339 121.191 27.6953C120.853 27.3438 120.579 26.9336 120.371 26.4648C120.176 25.9961 120.078 25.4948 120.078 24.9609V8.00781Z" fill="#111111"/>
<path d="M113.652 24.9609C113.652 25.4948 113.548 25.9961 113.34 26.4648C113.145 26.9336 112.871 27.3438 112.52 27.6953C112.181 28.0339 111.777 28.3073 111.309 28.5156C110.853 28.7109 110.358 28.8086 109.824 28.8086H99.4922C98.9714 28.8086 98.4766 28.7109 98.0078 28.5156C97.5391 28.3073 97.1289 28.0339 96.7773 27.6953C96.4388 27.3438 96.1654 26.9336 95.957 26.4648C95.7617 25.9961 95.6641 25.4948 95.6641 24.9609V11.8555C95.6641 11.3216 95.7617 10.8203 95.957 10.3516C96.1654 9.88281 96.4388 9.47917 96.7773 9.14062C97.1289 8.78906 97.5391 8.51562 98.0078 8.32031C98.4766 8.11198 98.9714 8.00781 99.4922 8.00781H109.824C110.358 8.00781 110.853 8.11198 111.309 8.32031C111.777 8.51562 112.181 8.78906 112.52 9.14062C112.871 9.47917 113.145 9.88281 113.34 10.3516C113.548 10.8203 113.652 11.3216 113.652 11.8555V24.9609ZM99.4922 11.8555V24.9609H109.824V11.8555H99.4922Z" fill="#111111"/>
<path d="M73.1055 0.800781L81.25 13.8867L89.4141 0.800781H94.0625L83.2617 17.6953V28.8086H79.2578V17.6953L68.457 0.800781H73.1055Z" fill="#111111"/>
<path d="M64.4336 20.3711H50.6641V24.9609H64.4336V28.8086H50.6641C50.1432 28.8086 49.6484 28.7109 49.1797 28.5156C48.7109 28.3073 48.3008 28.0339 47.9492 27.6953C47.6107 27.3438 47.3372 26.9336 47.1289 26.4648C46.9336 25.9961 46.8359 25.4948 46.8359 24.9609V11.8555C46.8359 11.3216 46.9336 10.8203 47.1289 10.3516C47.3372 9.88281 47.6107 9.47917 47.9492 9.14062C48.3008 8.78906 48.7109 8.51562 49.1797 8.32031C49.6484 8.11198 50.1432 8.00781 50.6641 8.00781H60.5859C61.1198 8.00781 61.6211 8.11198 62.0898 8.32031C62.5586 8.51562 62.9622 8.78906 63.3008 9.14062C63.6523 9.47917 63.9258 9.88281 64.1211 10.3516C64.3294 10.8203 64.4336 11.3216 64.4336 11.8555V20.3711ZM50.6641 11.8555V16.5234H60.5859V11.8555H50.6641Z" fill="#111111"/>
<path d="M40.4102 20.3711H26.6406V24.9609H40.4102V28.8086H26.6406C26.1198 28.8086 25.625 28.7109 25.1562 28.5156C24.6875 28.3073 24.2773 28.0339 23.9258 27.6953C23.5872 27.3438 23.3138 26.9336 23.1055 26.4648C22.9102 25.9961 22.8125 25.4948 22.8125 24.9609V11.8555C22.8125 11.3216 22.9102 10.8203 23.1055 10.3516C23.3138 9.88281 23.5872 9.47917 23.9258 9.14062C24.2773 8.78906 24.6875 8.51562 25.1562 8.32031C25.625 8.11198 26.1198 8.00781 26.6406 8.00781H36.5625C37.0964 8.00781 37.5977 8.11198 38.0664 8.32031C38.5352 8.51562 38.9388 8.78906 39.2773 9.14062C39.6289 9.47917 39.9023 9.88281 40.0977 10.3516C40.306 10.8203 40.4102 11.3216 40.4102 11.8555V20.3711ZM26.6406 11.8555V16.5234H36.5625V11.8555H26.6406Z" fill="#111111"/>
<path d="M4.00391 0.800781V24.8047H18.3984V28.8086H0V0.800781H4.00391Z" fill="#111111"/>
</svg>
