<svg width="38" height="38" viewBox="0 0 38 38" fill="none" xmlns="http://www.w3.org/2000/svg">
<rect width="38" height="38" fill="white"/>
<path d="M35.5134 15.5792H34.1114V9.40197H30.2044V15.5792H28.8096V8H30.2044V9.33792C30.2139 9.15289 30.2566 8.97972 30.3325 8.81841C30.4084 8.65235 30.5081 8.51002 30.6314 8.39141C30.7595 8.26806 30.9066 8.17317 31.0726 8.10675C31.2387 8.03558 31.4166 8 31.6064 8H34.1114C34.3059 8 34.4886 8.03796 34.6594 8.11387C34.8302 8.18503 34.9773 8.28466 35.1006 8.41276C35.2287 8.53612 35.3284 8.68319 35.3995 8.85399C35.4754 9.02479 35.5134 9.20745 35.5134 9.40197V15.5792Z" fill="#111111"/>
<path d="M19.7715 8H21.1663V14.1772H25.0733V8H26.4753V15.5792H25.0733V14.2982C25.0591 14.4737 25.0117 14.6398 24.931 14.7963C24.8503 14.9529 24.746 15.0905 24.6179 15.2091C24.4945 15.323 24.3522 15.4131 24.1909 15.4795C24.0296 15.5459 23.8588 15.5792 23.6785 15.5792H21.1663C20.9766 15.5792 20.7963 15.5436 20.6255 15.4724C20.4547 15.3965 20.3052 15.2969 20.1771 15.1735C20.0538 15.0454 19.9541 14.896 19.8782 14.7252C19.8071 14.5544 19.7715 14.3717 19.7715 14.1772V8Z" fill="black"/>
<path d="M17.4294 14.1772C17.4294 14.3717 17.3914 14.5544 17.3155 14.7252C17.2443 14.896 17.1447 15.0454 17.0166 15.1735C16.8933 15.2969 16.7462 15.3965 16.5754 15.4724C16.4093 15.5436 16.229 15.5792 16.0345 15.5792H12.2698C12.0801 15.5792 11.8998 15.5436 11.729 15.4724C11.5582 15.3965 11.4087 15.2969 11.2806 15.1735C11.1573 15.0454 11.0577 14.896 10.9817 14.7252C10.9106 14.5544 10.875 14.3717 10.875 14.1772V9.40197C10.875 9.20745 10.9106 9.02479 10.9817 8.85399C11.0577 8.68319 11.1573 8.53612 11.2806 8.41276C11.4087 8.28466 11.5582 8.18503 11.729 8.11387C11.8998 8.03796 12.0801 8 12.2698 8H16.0345C16.229 8 16.4093 8.03796 16.5754 8.11387C16.7462 8.18503 16.8933 8.28466 17.0166 8.41276C17.1447 8.53612 17.2443 8.68319 17.3155 8.85399C17.3914 9.02479 17.4294 9.20745 17.4294 9.40197V14.1772ZM12.2698 9.40197V14.1772H16.0345V9.40197H12.2698Z" fill="black"/>
<path d="M3.43168 18.6393L5.01867 14.896L2.04395 8H3.51708L5.73033 13.2165L7.94359 8H9.41672L4.82653 18.6393H3.43168Z" fill="#111111"/>
<path d="M26.5107 27.3334C26.5107 27.1389 26.5463 26.9586 26.6175 26.7926C26.6934 26.6218 26.793 26.4723 26.9164 26.3442C27.0445 26.2161 27.1939 26.1165 27.3647 26.0453C27.5355 25.9694 27.7158 25.9315 27.9056 25.9315H31.5208V24.4654H26.9449V23.0635H31.5208C31.7153 23.0635 31.898 23.1014 32.0688 23.1773C32.2396 23.2485 32.3867 23.3481 32.51 23.4762C32.6381 23.5996 32.7377 23.7467 32.8089 23.9175C32.8848 24.0883 32.9228 24.2709 32.9228 24.4654V30.6426H31.5208V29.3616C31.5066 29.5372 31.4591 29.7032 31.3785 29.8598C31.2978 30.0164 31.1934 30.154 31.0654 30.2726C30.942 30.3864 30.7997 30.4766 30.6384 30.543C30.477 30.6094 30.3063 30.6426 30.126 30.6426H27.9056C27.7158 30.6426 27.5355 30.607 27.3647 30.5359C27.1939 30.46 27.0445 30.3603 26.9164 30.237C26.793 30.1089 26.6934 29.9594 26.6175 29.7886C26.5463 29.6178 26.5107 29.4352 26.5107 29.2407V27.3334ZM27.9056 29.2407H31.5208V27.3334H27.9056V29.2407Z" fill="#111111"/>
<path d="M16.2977 30.6426L13.8496 23.0635H15.2658L17.0592 28.7781L18.7316 23.0635H20.162L21.8344 28.7781L23.6278 23.0635H25.044L22.5959 30.6426H21.137L19.4432 25.0775L17.7566 30.6426H16.2977Z" fill="black"/>
<path d="M12.3913 30.6425H10.9893V24.4653H7.08235V30.6425H5.6875V20.1455H7.08235V24.4012C7.09184 24.2162 7.13454 24.043 7.21045 23.8817C7.28636 23.7157 7.38599 23.5733 7.50934 23.4547C7.63744 23.3314 7.78452 23.2365 7.95057 23.1701C8.11662 23.0989 8.29454 23.0633 8.48431 23.0633H10.9893C11.1839 23.0633 11.3665 23.1013 11.5373 23.1772C11.7081 23.2483 11.8552 23.348 11.9786 23.4761C12.1067 23.5994 12.2063 23.7465 12.2775 23.9173C12.3534 24.0881 12.3913 24.2708 12.3913 24.4653V30.6425Z" fill="#111111"/>
</svg>
